<svg xmlns="http://www.w3.org/2000/svg" xmlns:xlink="http://www.w3.org/1999/xlink" width="20" height="20" viewBox="0 0 20 20">
  <defs>
    <clipPath id="clip-path">
      <rect id="Прямоугольник_125" data-name="Прямоугольник 125" width="20" height="20" transform="translate(-0.002)" fill="none"/>
    </clipPath>
  </defs>
  <g id="Сгруппировать_139" data-name="Сгруппировать 139" transform="translate(0.002)">
    <g id="Сгруппировать_114" data-name="Сгруппировать 114" clip-path="url(#clip-path)">
      <path id="Контур_9" data-name="Контур 9" d="M10.333,14.985c-1.528,0-3.056.01-4.584,0a2.794,2.794,0,0,1-2.52-2.538c-.124-1.248-.343-2.487-.5-3.732-.127-.989-.233-1.981-.339-2.973-.1-.937-.3-1.862-.334-2.808-.01-.257-.188-.343-.466-.361C.775,2.516.261,2.293.036,1.523A1.252,1.252,0,0,1,.9.035,2.968,2.968,0,0,1,4.338,1.808a5.748,5.748,0,0,1,.265,1.8c.042.441.149.569.587.567q5.837-.022,11.675-.006a2.912,2.912,0,0,1,3.056,2.242,2.752,2.752,0,0,1,0,1.3c-.362,1.387-.7,2.782-1.129,4.15a4.569,4.569,0,0,1-3.93,3.11c-1.509.038-3.02.008-4.531.008v0m.822-8.335c-1.883,0-3.766,0-5.649,0-.281,0-.5.012-.453.379.082.676.152,1.353.242,2.028.125.932.311,1.858.378,2.793.037.517.214.675.7.672,2.7-.013,5.4,0,8.1-.008a2.264,2.264,0,0,0,1.956-1.429c.344-1.195.667-2.4.985-3.6.174-.657.027-.831-.668-.832q-2.8,0-5.6,0" transform="translate(0 0.001)" fill="#a0fd16"/>
      <path id="Контур_10" data-name="Контур 10" d="M39.295,157.724a1.538,1.538,0,0,1,1.616-1.644,1.647,1.647,0,0,1,1.687,1.636,1.67,1.67,0,0,1-1.761,1.671,1.535,1.535,0,0,1-1.542-1.663" transform="translate(-35.096 -139.387)" fill="#a0fd16"/>
      <path id="Контур_11" data-name="Контур 11" d="M118.814,159.477a1.566,1.566,0,0,1-1.559-1.665,1.54,1.54,0,0,1,1.593-1.632,1.636,1.636,0,0,1,1.714,1.66,1.682,1.682,0,0,1-1.748,1.637" transform="translate(-104.739 -139.477)" fill="#a0fd16"/>
    </g>
  </g>
</svg>
