<svg xmlns="http://www.w3.org/2000/svg" xmlns:xlink="http://www.w3.org/1999/xlink" width="20" height="20" viewBox="0 0 20 20">
  <defs>
    <clipPath id="clip-path">
      <rect id="Прямоугольник_127" data-name="Прямоугольник 127" width="20" height="20" transform="translate(0.419)" fill="none"/>
    </clipPath>
  </defs>
  <g id="Сгруппировать_118" data-name="Сгруппировать 118" transform="translate(-0.419)" clip-path="url(#clip-path)">
    <path id="Контур_16" data-name="Контур 16" d="M10.366,15.09c-1.543,0-3.086.026-4.628-.008a2.722,2.722,0,0,1-2.466-2.408c-.181-1.3-.36-2.591-.525-3.888-.121-.953-.214-1.909-.329-2.863-.113-.936-.267-1.867-.336-2.81a.426.426,0,0,0-.5-.437A1.453,1.453,0,0,1,.086,1.752,1.226,1.226,0,0,1,1.179.13a2.857,2.857,0,0,1,3.375,2.92c.011.312.124.615.106.937s.244.29.453.29c1.188,0,2.377,0,3.565,0a1.415,1.415,0,0,1,1.262.783A1.453,1.453,0,0,1,9.5,6.536a1.028,1.028,0,0,1-.73.226c-1.082,0-2.164.02-3.245-.013-.413-.012-.5.17-.444.5.249,1.46.316,2.946.624,4.4.061.285-.134.629.155.854.326.254.721.114,1.082.116,2.43.013,4.86-.023,7.289.022a2.3,2.3,0,0,0,2.234-1.608,1.085,1.085,0,0,1,1.254-.856,1.168,1.168,0,0,1,1.174.915,1.809,1.809,0,0,1-.176,1.065A4.683,4.683,0,0,1,14.3,15.117c-1.308-.078-2.624-.015-3.936-.015V15.09" transform="translate(0.561 -0.105)" fill="#a0fd16"/>
    <path id="Контур_17" data-name="Контур 17" d="M117.593,3.758c-.081-.8.443-1.153,1.319-1.277.372-.053.874.2,1.086-.126.172-.261.038-.724.044-1.1a1.232,1.232,0,0,1,.938-1.222,1.251,1.251,0,0,1,1.425.621,2.783,2.783,0,0,1,.185,1.44c-.039.39.073.513.483.508a2.451,2.451,0,0,1,1.4.106,1.2,1.2,0,0,1,.562,1.295,1.4,1.4,0,0,1-1.173,1.036c-.388.025-.87-.128-1.145.052-.306.2-.056.722-.122,1.1-.239,1.356-1.24,1.59-2.016,1.093a1.154,1.154,0,0,1-.535-1.018c-.008-.387.118-.89-.076-1.131-.207-.258-.729-.072-1.112-.083a1.217,1.217,0,0,1-1.259-1.291" transform="translate(-104.501 0)" fill="#a0fd16"/>
    <path id="Контур_18" data-name="Контур 18" d="M39.66,157.787a1.535,1.535,0,0,1,1.625-1.632,1.645,1.645,0,0,1,1.672,1.649,1.675,1.675,0,0,1-1.769,1.658,1.535,1.535,0,0,1-1.527-1.675" transform="translate(-34.871 -139.462)" fill="#a0fd16"/>
    <path id="Контур_19" data-name="Контур 19" d="M119.209,159.557a1.649,1.649,0,0,1,.035-3.3,1.626,1.626,0,0,1,1.682,1.634,1.665,1.665,0,0,1-1.717,1.662" transform="translate(-104.537 -139.557)" fill="#a0fd16"/>
  </g>
</svg>
