<svg xmlns="http://www.w3.org/2000/svg" width="14" height="20" viewBox="0 0 14 20">
  <g id="Сгруппировать_136" data-name="Сгруппировать 136" transform="translate(-0.002)">
    <path id="Эллипс_26" data-name="Эллипс 26" d="M5,1A4,4,0,1,0,9,5,4,4,0,0,0,5,1M5,0A5,5,0,1,1,0,5,5,5,0,0,1,5,0Z" transform="translate(2.002)" fill="#a0fd16"/>
    <path id="Вычитание_2" data-name="Вычитание 2" d="M12.939,7C12.521,3.612,10.017,1,7,1S1.478,3.612,1.061,7H12.939M14,8H0C0,3.588,3.14,0,7,0s7,3.588,7,8Z" transform="translate(0.002 12)" fill="#a0fd16"/>
  </g>
</svg>
